<svg xmlns="http://www.w3.org/2000/svg" viewBox="0 0 100 100" width="100px" height="100px"><path fill="#f8e55b" d="M69.654,81.921h-39c-6.6,0-12-5.4-12-12v-39c0-6.6,5.4-12,12-12h39c6.6,0,12,5.4,12,12v39C81.654,76.521,76.254,81.921,69.654,81.921z"/><path fill="#1f212b" d="M69.154,81.921h-39c-6.904,0-12.5-5.596-12.5-12.5v-39c0-6.904,5.596-12.5,12.5-12.5h39c6.904,0,12.5,5.596,12.5,12.5v39C81.654,76.325,76.057,81.921,69.154,81.921z M18.654,30.421v39c0,6.351,5.149,11.5,11.5,11.5h39c6.351,0,11.5-5.149,11.5-11.5v-39c0-6.351-5.149-11.5-11.5-11.5h-39C23.802,18.921,18.654,24.07,18.654,30.421z"/><path fill="#1f212b" d="M66.816 77.921H33.491c-5.986 0-10.838-4.852-10.838-10.838V33.758c0-5.985 4.852-10.837 10.837-10.837h33.663c.276 0 .5.224.5.5s-.224.5-.5.5H33.49c-5.433 0-9.837 4.404-9.837 9.837v33.325c0 5.433 4.405 9.838 9.838 9.838h33.325c5.433 0 9.837-4.404 9.837-9.837V48.421c0-.276.224-.5.5-.5s.5.224.5.5v18.662C77.654 73.069 72.801 77.921 66.816 77.921zM77.154 45.5c-.276 0-.5-.224-.5-.5v-4c0-.276.224-.5.5-.5s.5.224.5.5v4C77.654 45.277 77.43 45.5 77.154 45.5zM77.154 39.5c-.276 0-.5-.224-.5-.5v-2c0-.276.224-.5.5-.5s.5.224.5.5v2C77.654 39.277 77.43 39.5 77.154 39.5z"/><path fill="#fdfcee" d="M57.97,62.222h-3.384l-2.196-5.796H41.194l-2.16,5.796H35.65l9.54-23.976h3.24L57.97,62.222z M42.202,53.762h9.216L46.81,41.27L42.202,53.762z"/><path fill="#1f212b" d="M57.97,62.722h-3.384c-0.208,0-0.394-0.129-0.468-0.323l-2.073-5.473H41.541l-2.038,5.471c-0.073,0.195-0.26,0.325-0.469,0.325H35.65c-0.166,0-0.321-0.082-0.414-0.22c-0.093-0.137-0.112-0.312-0.051-0.465l9.54-23.976c0.076-0.19,0.26-0.315,0.464-0.315h3.24c0.205,0,0.389,0.125,0.464,0.315l9.54,23.976c0.062,0.153,0.042,0.328-0.051,0.465C58.291,62.64,58.136,62.722,57.97,62.722z M54.931,61.722h2.302l-9.142-22.976H45.53l-9.142,22.976h2.3l2.038-5.471c0.073-0.195,0.26-0.325,0.469-0.325H52.39c0.208,0,0.394,0.129,0.468,0.323L54.931,61.722z M51.418,54.262h-9.216c-0.164,0-0.317-0.08-0.41-0.214c-0.094-0.135-0.116-0.306-0.059-0.459l4.608-12.492c0.146-0.393,0.793-0.393,0.938,0l4.608,12.492c0.057,0.153,0.035,0.324-0.059,0.459C51.735,54.182,51.582,54.262,51.418,54.262z M42.92,53.262h7.781L46.81,42.714L42.92,53.262z"/><path fill="#fdfcee" d="M60.246,39.831c0-0.552,0.186-1.032,0.558-1.44c0.372-0.408,0.87-0.612,1.494-0.612s1.122,0.204,1.494,0.612c0.372,0.408,0.558,0.889,0.558,1.44s-0.186,1.032-0.558,1.439c-0.373,0.408-0.87,0.612-1.494,0.612s-1.122-0.204-1.494-0.612C60.432,40.863,60.246,40.382,60.246,39.831z M60.678,62.222v-17.28h3.24v17.28H60.678z"/><path fill="#1f212b" d="M63.918,62.722h-3.24c-0.276,0-0.5-0.224-0.5-0.5v-17.28c0-0.276,0.224-0.5,0.5-0.5h3.24c0.276,0,0.5,0.224,0.5,0.5v17.28C64.418,62.498,64.195,62.722,63.918,62.722z M61.178,61.722h2.24v-16.28h-2.24V61.722z M62.298,42.382c-0.768,0-1.395-0.261-1.863-0.775c-0.457-0.499-0.688-1.097-0.688-1.776c0-0.679,0.232-1.276,0.689-1.777c0.468-0.515,1.095-0.775,1.863-0.775c0.767,0,1.394,0.261,1.863,0.775c0.458,0.501,0.689,1.1,0.689,1.777c0,0.679-0.232,1.276-0.689,1.776C63.692,42.121,63.065,42.382,62.298,42.382z M62.298,38.278c-0.481,0-0.849,0.146-1.124,0.449c-0.288,0.315-0.428,0.676-0.428,1.104s0.14,0.788,0.427,1.102c0.275,0.304,0.643,0.45,1.125,0.45c0.481,0,0.849-0.147,1.125-0.449c0.288-0.315,0.427-0.676,0.427-1.103s-0.14-0.788-0.428-1.104C63.147,38.425,62.779,38.278,62.298,38.278z"/><path fill="#1f212b" d="M69.654,82.921h-39c-7.18,0-13-5.82-13-13v-39c0-7.18,5.82-13,13-13h39c7.18,0,13,5.82,13,13v39C82.654,77.101,76.833,82.921,69.654,82.921z M19.654,30.921v39c0,6.075,4.925,11,11,11h39c6.075,0,11-4.925,11-11v-39c0-6.075-4.925-11-11-11h-39C24.578,19.921,19.654,24.846,19.654,30.921z"/></svg>